<svg version="1.1" id="Layer_1" xmlns="http://www.w3.org/2000/svg" xmlns:xlink="http://www.w3.org/1999/xlink" x="0px" y="0px"
	 width="100%" viewBox="0 0 500 500" enable-background="new 0 0 500 500" xml:space="preserve">
<path fill="#1C1A1A" opacity="1.000000" stroke="none" 
	d="
M267.000000,501.000000 
	C178.000015,501.000000 89.500046,501.000000 1.000047,501.000000 
	C1.000032,334.333405 1.000032,167.666794 1.000016,1.000137 
	C167.666565,1.000091 334.333130,1.000091 500.999756,1.000046 
	C500.999847,167.666519 500.999847,334.333038 500.999939,500.999786 
	C423.166656,501.000000 345.333344,501.000000 267.000000,501.000000 
M451.418152,242.100769 
	C452.433319,236.082169 453.448517,230.063583 454.524048,223.687256 
	C452.205994,223.319733 450.298645,223.359650 448.678070,222.697540 
	C443.380219,220.533005 440.476471,222.725601 438.142578,227.425430 
	C436.005341,231.729263 433.221222,235.713928 430.689667,239.819183 
	C428.770142,242.932037 426.799530,246.013428 424.366913,249.879120 
	C422.070374,239.423553 420.098724,230.153275 417.938812,220.927078 
	C417.611328,219.528107 416.639343,217.491043 415.569550,217.198898 
	C411.986725,216.220428 408.224396,215.899185 404.413879,215.308151 
	C401.867737,230.274979 399.420105,244.662720 396.909454,259.420807 
	C400.636322,260.029938 404.002686,260.580109 407.632660,261.173401 
	C409.053131,253.204529 410.403290,245.630234 411.753448,238.055923 
	C414.148376,245.005447 415.812378,251.882523 416.763947,258.856812 
	C417.223175,262.222595 418.742035,263.201691 421.670380,263.801666 
	C425.048553,264.493835 427.130524,263.749176 428.793427,260.499146 
	C431.587067,255.039047 434.872559,249.830582 437.951111,244.516266 
	C438.508087,244.728867 439.065094,244.941467 439.622101,245.154068 
	C438.557739,252.028259 437.493378,258.902435 436.377411,266.109863 
	C440.049225,266.732849 443.423279,267.305298 447.060852,267.922455 
	C448.494690,259.338745 449.863617,251.143433 451.418152,242.100769 
M156.890976,222.432739 
	C156.328964,217.846191 155.766968,213.259659 155.169830,208.386444 
	C151.398788,208.796249 148.039963,209.161255 144.454758,209.550873 
	C145.381821,218.580826 146.250061,227.037933 147.266556,236.938934 
	C141.018250,229.398560 135.737000,223.041458 130.474121,216.669205 
	C125.822426,211.036987 122.892242,210.379410 115.415550,213.489502 
	C116.990166,227.894516 118.572426,242.369476 120.200897,257.267212 
	C123.981552,256.855377 127.368416,256.486450 131.008469,256.089966 
	C130.115768,247.396667 129.263367,239.095795 128.410965,230.794922 
	C134.047119,235.877167 139.072250,241.142242 143.173721,247.048691 
	C147.145493,252.768417 151.615891,255.549026 158.497818,253.095016 
	C158.928589,252.941422 159.370117,252.817993 160.083481,252.593338 
	C159.036545,242.788864 157.997879,233.061813 156.890976,222.432739 
M312.510559,217.910461 
	C311.817474,212.476486 309.101624,207.938126 303.785797,206.945938 
	C295.458008,205.391571 286.906006,205.038635 278.304108,204.162048 
	C277.685547,220.015701 277.118256,234.554977 276.537567,249.438141 
	C280.416077,249.626129 283.674347,249.784058 287.330597,249.961273 
	C287.643494,244.129669 287.935028,238.696045 288.296112,231.966187 
	C289.987518,233.621429 291.284271,234.427734 291.917206,235.594254 
	C294.049835,239.524704 295.818329,243.655258 298.008514,247.550461 
	C298.697845,248.776382 300.169434,250.105270 301.469452,250.335983 
	C304.511108,250.875732 307.665710,250.779022 311.649994,250.985352 
	C308.319244,244.556290 305.329102,238.784744 302.240387,232.822861 
	C309.295624,230.300507 312.648743,225.677048 312.510559,217.910461 
M362.203735,225.689713 
	C357.655701,234.854904 353.107697,244.020081 348.390656,253.525879 
	C351.769714,254.006638 354.521637,254.624191 357.285095,254.681091 
	C358.403625,254.704117 360.332825,253.700714 360.551666,252.827988 
	C361.932800,247.320389 365.724365,247.374725 370.083801,248.126602 
	C373.179291,248.660461 376.312592,248.974899 379.361725,249.378372 
	C382.791168,258.686279 382.947968,258.791016 393.053986,258.391602 
	C389.731506,244.316223 386.273010,230.332458 383.224213,216.259949 
	C382.500031,212.917374 381.076752,212.083359 377.968079,211.854538 
	C369.594269,211.238220 369.604523,211.093597 365.723236,218.831161 
	C364.682312,220.906311 363.644257,222.982895 362.203735,225.689713 
M53.640289,227.191299 
	C47.088783,236.178818 46.896626,247.918869 53.160873,256.479675 
	C58.817486,264.210052 68.641121,267.076904 78.674385,263.925323 
	C87.211617,261.243683 92.707581,254.414108 92.870270,245.873520 
	C87.953529,247.147888 82.306007,245.583008 79.135223,251.692825 
	C78.231377,253.434479 75.052475,254.584503 72.760696,254.911484 
	C64.320656,256.115723 58.398426,248.371109 59.941612,238.546112 
	C61.038109,231.565018 69.353317,226.537766 74.968460,230.588760 
	C80.506355,234.584030 85.179024,232.042282 90.377953,231.672302 
	C86.357002,218.399765 65.872589,214.508530 53.640289,227.191299 
M219.955872,240.541519 
	C216.324280,242.048035 213.191223,242.042862 211.102097,237.975403 
	C210.775436,237.339401 209.620285,236.822113 208.824997,236.787750 
	C205.698410,236.652588 202.562531,236.732407 199.326492,236.732407 
	C201.135498,247.632355 211.046722,252.838501 222.443527,249.488480 
	C228.837433,247.609009 232.775238,243.033508 233.050690,237.163544 
	C233.338623,231.027374 230.666107,227.419632 223.689194,224.747208 
	C220.440460,223.502823 216.986374,222.710678 213.897659,221.168274 
	C212.382111,220.411469 211.066101,218.556076 210.498169,216.908844 
	C210.232132,216.137253 211.802963,213.898987 212.805374,213.707474 
	C214.562546,213.371765 217.538086,213.435852 218.231003,214.493515 
	C222.221283,220.584351 227.292480,216.006241 231.889145,217.188629 
	C230.807541,205.538696 217.650772,202.094467 207.611801,205.744934 
	C201.879105,207.829514 198.998840,211.682922 198.846313,217.171005 
	C198.676636,223.276398 201.071487,226.946167 207.139679,229.322708 
	C210.682587,230.710251 214.435959,231.567032 217.958740,232.997330 
	C221.097412,234.271683 223.000580,236.400604 219.955872,240.541519 
M347.942566,209.101974 
	C339.065216,208.187958 330.187836,207.273941 320.956757,206.323517 
	C319.774811,221.685287 318.646332,236.352661 317.490387,251.376831 
	C327.059387,252.074631 335.913666,252.720291 344.892517,253.375046 
	C345.089844,250.227493 345.244446,247.761673 345.428986,244.818527 
	C339.888214,244.295898 334.543213,243.791718 328.941620,243.263351 
	C329.318390,239.774551 329.632172,236.868881 329.966064,233.777145 
	C335.022308,234.060867 339.578064,234.316513 344.519409,234.593796 
	C344.676971,231.586304 344.811035,229.027908 344.948029,226.413223 
	C339.864258,225.917007 335.300995,225.471603 330.639008,225.016571 
	C330.835968,221.812027 330.998108,219.174545 331.176300,216.275314 
	C336.785156,216.622375 342.194977,216.957123 347.837830,217.306274 
	C347.974609,214.464249 348.086029,212.148956 347.942566,209.101974 
M164.747238,216.152008 
	C165.543716,228.080200 166.340195,240.008377 167.168167,252.407974 
	C176.399979,251.801804 185.291763,251.217972 194.713776,250.599319 
	C194.425003,247.465393 194.177536,244.779846 193.907059,241.844421 
	C188.197479,242.210388 182.955917,242.546341 177.460846,242.898560 
	C177.275055,239.422195 177.117294,236.470276 176.947784,233.298218 
	C181.821838,232.867157 186.420609,232.460449 191.344009,232.025024 
	C191.178741,229.165039 191.030914,226.606918 190.869614,223.815582 
	C185.756256,224.056137 181.161133,224.272324 176.204376,224.505524 
	C176.066650,221.432281 175.943436,218.682831 175.807983,215.660049 
	C181.444641,215.254654 186.551102,214.887405 192.059586,214.491226 
	C191.919800,211.447479 191.796097,208.753525 191.656525,205.714493 
	C182.042664,206.396103 173.154465,207.026260 163.979996,207.676712 
	C164.248367,210.623901 164.458511,212.931641 164.747238,216.152008 
M260.467010,204.347046 
	C252.852692,204.347046 245.238373,204.347046 237.410614,204.347046 
	C237.410614,207.421463 237.410614,210.118073 237.410614,213.316315 
	C241.452698,213.316315 245.181305,213.316315 249.238373,213.316315 
	C249.238373,225.545502 249.238373,237.271500 249.238373,248.911911 
	C252.988785,248.911911 256.380829,248.911911 260.198700,248.911911 
	C260.198700,236.810989 260.198700,225.057755 260.198700,212.910034 
	C264.370880,212.910034 268.105011,212.910034 271.673126,212.910034 
	C271.673126,209.908173 271.673126,207.328781 271.673126,204.351959 
	C268.065094,204.351959 264.759338,204.351959 260.467010,204.347046 
M112.447807,254.718628 
	C110.538513,241.270035 108.629219,227.821442 106.688370,214.150589 
	C102.801079,214.758957 99.445084,215.284180 95.839973,215.848389 
	C98.005318,230.936584 100.093445,245.486755 102.203049,260.186554 
	C105.438606,259.733765 108.149696,259.630859 110.654381,258.858551 
	C111.570160,258.576202 111.995903,256.704529 112.447807,254.718628 
z"/>
<path fill="#F9F9F9" opacity="1.000000" stroke="none" 
	d="
M451.325378,242.524445 
	C449.863617,251.143433 448.494690,259.338745 447.060852,267.922455 
	C443.423279,267.305298 440.049225,266.732849 436.377411,266.109863 
	C437.493378,258.902435 438.557739,252.028259 439.622101,245.154068 
	C439.065094,244.941467 438.508087,244.728867 437.951111,244.516266 
	C434.872559,249.830582 431.587067,255.039047 428.793427,260.499146 
	C427.130524,263.749176 425.048553,264.493835 421.670380,263.801666 
	C418.742035,263.201691 417.223175,262.222595 416.763947,258.856812 
	C415.812378,251.882523 414.148376,245.005447 411.753448,238.055923 
	C410.403290,245.630234 409.053131,253.204529 407.632660,261.173401 
	C404.002686,260.580109 400.636322,260.029938 396.909454,259.420807 
	C399.420105,244.662720 401.867737,230.274979 404.413879,215.308151 
	C408.224396,215.899185 411.986725,216.220428 415.569550,217.198898 
	C416.639343,217.491043 417.611328,219.528107 417.938812,220.927078 
	C420.098724,230.153275 422.070374,239.423553 424.366913,249.879120 
	C426.799530,246.013428 428.770142,242.932037 430.689667,239.819183 
	C433.221222,235.713928 436.005341,231.729263 438.142578,227.425430 
	C440.476471,222.725601 443.380219,220.533005 448.678070,222.697540 
	C450.298645,223.359650 452.205994,223.319733 454.524048,223.687256 
	C453.448517,230.063583 452.433319,236.082169 451.325378,242.524445 
M439.934235,243.725143 
	C439.805634,243.329941 439.677032,242.934753 439.548401,242.539566 
	C439.361206,242.654755 439.007263,242.783630 439.015381,242.882812 
	C439.052826,243.339310 439.191284,243.787537 439.934235,243.725143 
z"/>
<path fill="#FAFAFA" opacity="1.000000" stroke="none" 
	d="
M156.925095,222.883759 
	C157.997879,233.061813 159.036545,242.788864 160.083481,252.593338 
	C159.370117,252.817993 158.928589,252.941422 158.497818,253.095016 
	C151.615891,255.549026 147.145493,252.768417 143.173721,247.048691 
	C139.072250,241.142242 134.047119,235.877167 128.410965,230.794922 
	C129.263367,239.095795 130.115768,247.396667 131.008469,256.089966 
	C127.368416,256.486450 123.981552,256.855377 120.200897,257.267212 
	C118.572426,242.369476 116.990166,227.894516 115.415550,213.489502 
	C122.892242,210.379410 125.822426,211.036987 130.474121,216.669205 
	C135.737000,223.041458 141.018250,229.398560 147.266556,236.938934 
	C146.250061,227.037933 145.381821,218.580826 144.454758,209.550873 
	C148.039963,209.161255 151.398788,208.796249 155.169830,208.386444 
	C155.766968,213.259659 156.328964,217.846191 156.925095,222.883759 
z"/>
<path fill="#F8F8F8" opacity="1.000000" stroke="none" 
	d="
M312.565948,218.307312 
	C312.648743,225.677048 309.295624,230.300507 302.240387,232.822861 
	C305.329102,238.784744 308.319244,244.556290 311.649994,250.985352 
	C307.665710,250.779022 304.511108,250.875732 301.469452,250.335983 
	C300.169434,250.105270 298.697845,248.776382 298.008514,247.550461 
	C295.818329,243.655258 294.049835,239.524704 291.917206,235.594254 
	C291.284271,234.427734 289.987518,233.621429 288.296112,231.966187 
	C287.935028,238.696045 287.643494,244.129669 287.330597,249.961273 
	C283.674347,249.784058 280.416077,249.626129 276.537567,249.438141 
	C277.118256,234.554977 277.685547,220.015701 278.304108,204.162048 
	C286.906006,205.038635 295.458008,205.391571 303.785797,206.945938 
	C309.101624,207.938126 311.817474,212.476486 312.565948,218.307312 
M300.838470,217.146774 
	C297.185272,215.788254 293.532074,214.429733 289.073181,212.771591 
	C288.825867,217.789261 288.657440,221.205841 288.491150,224.579117 
	C298.760284,226.651459 301.410431,225.209366 300.838470,217.146774 
z"/>
<path fill="#F9F9F9" opacity="1.000000" stroke="none" 
	d="
M362.404297,225.374268 
	C363.644257,222.982895 364.682312,220.906311 365.723236,218.831161 
	C369.604523,211.093597 369.594269,211.238220 377.968079,211.854538 
	C381.076752,212.083359 382.500031,212.917374 383.224213,216.259949 
	C386.273010,230.332458 389.731506,244.316223 393.053986,258.391602 
	C382.947968,258.791016 382.791168,258.686279 379.361725,249.378372 
	C376.312592,248.974899 373.179291,248.660461 370.083801,248.126602 
	C365.724365,247.374725 361.932800,247.320389 360.551666,252.827988 
	C360.332825,253.700714 358.403625,254.704117 357.285095,254.681091 
	C354.521637,254.624191 351.769714,254.006638 348.390656,253.525879 
	C353.107697,244.020081 357.655701,234.854904 362.404297,225.374268 
M373.606110,225.609131 
	C371.515106,229.993835 369.424103,234.378540 367.044800,239.367783 
	C371.122375,239.807327 374.314514,240.151443 378.442932,240.596466 
	C376.854156,235.003494 375.446899,230.049423 373.606110,225.609131 
z"/>
<path fill="#F9F9F9" opacity="1.000000" stroke="none" 
	d="
M53.871918,226.913498 
	C65.872589,214.508530 86.357002,218.399765 90.377953,231.672302 
	C85.179024,232.042282 80.506355,234.584030 74.968460,230.588760 
	C69.353317,226.537766 61.038109,231.565018 59.941612,238.546112 
	C58.398426,248.371109 64.320656,256.115723 72.760696,254.911484 
	C75.052475,254.584503 78.231377,253.434479 79.135223,251.692825 
	C82.306007,245.583008 87.953529,247.147888 92.870270,245.873520 
	C92.707581,254.414108 87.211617,261.243683 78.674385,263.925323 
	C68.641121,267.076904 58.817486,264.210052 53.160873,256.479675 
	C46.896626,247.918869 47.088783,236.178818 53.871918,226.913498 
z"/>
<path fill="#F9F9F9" opacity="1.000000" stroke="none" 
	d="
M220.288239,240.254333 
	C223.000580,236.400604 221.097412,234.271683 217.958740,232.997330 
	C214.435959,231.567032 210.682587,230.710251 207.139679,229.322708 
	C201.071487,226.946167 198.676636,223.276398 198.846313,217.171005 
	C198.998840,211.682922 201.879105,207.829514 207.611801,205.744934 
	C217.650772,202.094467 230.807541,205.538696 231.889145,217.188629 
	C227.292480,216.006241 222.221283,220.584351 218.231003,214.493515 
	C217.538086,213.435852 214.562546,213.371765 212.805374,213.707474 
	C211.802963,213.898987 210.232132,216.137253 210.498169,216.908844 
	C211.066101,218.556076 212.382111,220.411469 213.897659,221.168274 
	C216.986374,222.710678 220.440460,223.502823 223.689194,224.747208 
	C230.666107,227.419632 233.338623,231.027374 233.050690,237.163544 
	C232.775238,243.033508 228.837433,247.609009 222.443527,249.488480 
	C211.046722,252.838501 201.135498,247.632355 199.326492,236.732407 
	C202.562531,236.732407 205.698410,236.652588 208.824997,236.787750 
	C209.620285,236.822113 210.775436,237.339401 211.102097,237.975403 
	C213.191223,242.042862 216.324280,242.048035 220.288239,240.254333 
z"/>
<path fill="#F9F9F9" opacity="1.000000" stroke="none" 
	d="
M348.070007,209.467819 
	C348.086029,212.148956 347.974609,214.464249 347.837830,217.306274 
	C342.194977,216.957123 336.785156,216.622375 331.176300,216.275314 
	C330.998108,219.174545 330.835968,221.812027 330.639008,225.016571 
	C335.300995,225.471603 339.864258,225.917007 344.948029,226.413223 
	C344.811035,229.027908 344.676971,231.586304 344.519409,234.593796 
	C339.578064,234.316513 335.022308,234.060867 329.966064,233.777145 
	C329.632172,236.868881 329.318390,239.774551 328.941620,243.263351 
	C334.543213,243.791718 339.888214,244.295898 345.428986,244.818527 
	C345.244446,247.761673 345.089844,250.227493 344.892517,253.375046 
	C335.913666,252.720291 327.059387,252.074631 317.490387,251.376831 
	C318.646332,236.352661 319.774811,221.685287 320.956757,206.323517 
	C330.187836,207.273941 339.065216,208.187958 348.070007,209.467819 
z"/>
<path fill="#F9F9F9" opacity="1.000000" stroke="none" 
	d="
M164.707947,215.695694 
	C164.458511,212.931641 164.248367,210.623901 163.979996,207.676712 
	C173.154465,207.026260 182.042664,206.396103 191.656525,205.714493 
	C191.796097,208.753525 191.919800,211.447479 192.059586,214.491226 
	C186.551102,214.887405 181.444641,215.254654 175.807983,215.660049 
	C175.943436,218.682831 176.066650,221.432281 176.204376,224.505524 
	C181.161133,224.272324 185.756256,224.056137 190.869614,223.815582 
	C191.030914,226.606918 191.178741,229.165039 191.344009,232.025024 
	C186.420609,232.460449 181.821838,232.867157 176.947784,233.298218 
	C177.117294,236.470276 177.275055,239.422195 177.460846,242.898560 
	C182.955917,242.546341 188.197479,242.210388 193.907059,241.844421 
	C194.177536,244.779846 194.425003,247.465393 194.713776,250.599319 
	C185.291763,251.217972 176.399979,251.801804 167.168167,252.407974 
	C166.340195,240.008377 165.543716,228.080200 164.707947,215.695694 
z"/>
<path fill="#F9F9F9" opacity="1.000000" stroke="none" 
	d="
M260.960266,204.349503 
	C264.759338,204.351959 268.065094,204.351959 271.673126,204.351959 
	C271.673126,207.328781 271.673126,209.908173 271.673126,212.910034 
	C268.105011,212.910034 264.370880,212.910034 260.198700,212.910034 
	C260.198700,225.057755 260.198700,236.810989 260.198700,248.911911 
	C256.380829,248.911911 252.988785,248.911911 249.238373,248.911911 
	C249.238373,237.271500 249.238373,225.545502 249.238373,213.316315 
	C245.181305,213.316315 241.452698,213.316315 237.410614,213.316315 
	C237.410614,210.118073 237.410614,207.421463 237.410614,204.347046 
	C245.238373,204.347046 252.852692,204.347046 260.960266,204.349503 
z"/>
<path fill="#F9F9F9" opacity="1.000000" stroke="none" 
	d="
M112.546501,255.138275 
	C111.995903,256.704529 111.570160,258.576202 110.654381,258.858551 
	C108.149696,259.630859 105.438606,259.733765 102.203049,260.186554 
	C100.093445,245.486755 98.005318,230.936584 95.839973,215.848389 
	C99.445084,215.284180 102.801079,214.758957 106.688370,214.150589 
	C108.629219,227.821442 110.538513,241.270035 112.546501,255.138275 
z"/>
<path fill="#1C1A1A" opacity="1.000000" stroke="none" 
	d="
M439.613892,243.981934 
	C439.191284,243.787537 439.052826,243.339310 439.015381,242.882812 
	C439.007263,242.783630 439.361206,242.654755 439.548401,242.539566 
	C439.677032,242.934753 439.805634,243.329941 439.613892,243.981934 
z"/>
<path fill="#222020" opacity="1.000000" stroke="none" 
	d="
M300.960632,217.549866 
	C301.410431,225.209366 298.760284,226.651459 288.491150,224.579117 
	C288.657440,221.205841 288.825867,217.789261 289.073181,212.771591 
	C293.532074,214.429733 297.185272,215.788254 300.960632,217.549866 
z"/>
<path fill="#2C2A2A" opacity="1.000000" stroke="none" 
	d="
M373.822876,225.352234 
	C375.446899,230.049423 376.854156,235.003494 378.442932,240.596466 
	C374.314514,240.151443 371.122375,239.807327 367.044800,239.367783 
	C369.424103,234.378540 371.515106,229.993835 373.822876,225.352234 
z"/>
</svg>